<?xml version="1.0" encoding="UTF-8"?>
<!DOCTYPE svg PUBLIC "-//W3C//DTD SVG 1.1//EN" "http://www.w3.org/Graphics/SVG/1.1/DTD/svg11.dtd">
<!-- Creator: CorelDRAW -->
<svg xmlns="http://www.w3.org/2000/svg" xml:space="preserve" width="2048px" height="2048px" style="shape-rendering:geometricPrecision; text-rendering:geometricPrecision; image-rendering:optimizeQuality; fill-rule:evenodd; clip-rule:evenodd"
viewBox="0 0 2048 2048"
 xmlns:xlink="http://www.w3.org/1999/xlink">
 <defs>
  <style type="text/css">
   <![CDATA[
    .fil2 {fill:none}
    .fil3 {fill:#0277BD}
    .fil5 {fill:#039BE5}
    .fil1 {fill:#43A047}
    .fil0 {fill:#81C784}
    .fil7 {fill:#F44336}
    .fil6 {fill:#F9A825}
    .fil4 {fill:#FFFFFE}
   ]]>
  </style>
   <clipPath id="id0">
    <path d="M1024 0c565.539,0 1024,458.461 1024,1024 0,565.539 -458.461,1024 -1024,1024 -565.539,0 -1024,-458.461 -1024,-1024 0,-565.539 458.461,-1024 1024,-1024z"/>
   </clipPath>
 </defs>
 <g id="Layer_x0020_1">
  <metadata id="CorelCorpID_0Corel-Layer"/>
  <path class="fil0" d="M1024 0c565.539,0 1024,458.461 1024,1024 0,565.539 -458.461,1024 -1024,1024 -565.539,0 -1024,-458.461 -1024,-1024 0,-565.539 458.461,-1024 1024,-1024z"/>
  <g style="clip-path:url(#id0)">
   <g id="_341211736">
    <g>
     <polygon id="_3384339601" class="fil1" points="1432.6,501.63 2568.48,1637.51 2570.03,1639.44 2571.55,1641.41 2573.01,1643.42 2574.43,1645.46 2575.8,1647.54 2577.12,1649.65 2578.39,1651.79 2579.61,1653.97 2580.78,1656.18 2581.9,1658.42 2582.96,1660.69 2583.97,1662.99 2584.92,1665.31 2585.82,1667.67 2586.66,1670.05 2587.45,1672.46 2588.18,1674.89 2588.84,1677.35 2589.45,1679.83 2590,1682.33 2590.49,1684.86 2590.91,1687.41 2591.27,1689.97 2591.57,1692.56 2591.8,1695.16 2591.97,1697.78 2592.07,1700.42 2592.11,1703.08 1456.22,567.194 1456.19,564.539 1456.09,561.9 1455.92,559.278 1455.69,556.675 1455.39,554.089 1455.03,551.523 1454.61,548.977 1454.12,546.452 1453.57,543.948 1452.96,541.467 1452.29,539.009 1451.57,536.578 1450.78,534.169 1449.94,531.787 1449.04,529.432 1448.09,527.105 1447.08,524.806 1446.01,522.535 1444.9,520.296 1443.73,518.087 1442.51,515.911 1441.24,513.766 1439.92,511.655 1438.55,509.579 1437.13,507.537 1435.67,505.531 1434.15,503.561 "/>
     <polygon id="_338433672" class="fil1" points="1456.22,567.194 2592.11,1703.08 2592.11,2616.69 1456.22,1480.81 "/>
     <polygon id="_338434080" class="fil1" points="1456.22,1480.81 2592.11,2616.69 2592.07,2619.34 2591.97,2621.98 2591.8,2624.6 2591.57,2627.21 2591.27,2629.79 2590.91,2632.36 2590.49,2634.91 2590,2637.43 2589.45,2639.93 2588.84,2642.41 2588.18,2644.87 2587.45,2647.3 2586.66,2649.71 2585.82,2652.09 2584.92,2654.45 2583.97,2656.78 2582.96,2659.07 2581.89,2661.34 2580.78,2663.58 2579.61,2665.79 2578.39,2667.97 2577.12,2670.11 2575.8,2672.22 2574.43,2674.3 2573.01,2676.34 2571.55,2678.35 2570.03,2680.32 2568.48,2682.25 2566.88,2684.14 2565.23,2686 2563.54,2687.81 2561.81,2689.58 1425.93,1553.7 1427.66,1551.93 1429.35,1550.12 1430.99,1548.26 1432.6,1546.37 1434.15,1544.44 1435.66,1542.47 1437.13,1540.46 1438.55,1538.42 1439.92,1536.34 1441.24,1534.23 1442.51,1532.09 1443.73,1529.91 1444.9,1527.7 1446.01,1525.46 1447.08,1523.19 1448.09,1520.89 1449.04,1518.57 1449.94,1516.21 1450.78,1513.83 1451.57,1511.42 1452.29,1508.99 1452.96,1506.53 1453.57,1504.05 1454.12,1501.55 1454.61,1499.02 1455.03,1496.48 1455.39,1493.91 1455.69,1491.32 1455.92,1488.72 1456.09,1486.1 1456.19,1483.46 "/>
     <polygon id="_338434800" class="fil1" points="1425.93,1553.7 2561.81,2689.58 2560.04,2691.32 2558.22,2693.01 2556.37,2694.65 2554.47,2696.25 2552.54,2697.81 2550.57,2699.32 2548.57,2700.79 2546.53,2702.2 2544.45,2703.57 2542.34,2704.9 2540.19,2706.17 2538.02,2707.39 2535.81,2708.55 2533.57,2709.67 2531.3,2710.73 2529,2711.74 2526.67,2712.7 2524.32,2713.6 2521.94,2714.44 2519.53,2715.23 2517.1,2715.95 2514.64,2716.62 2512.16,2717.23 2509.65,2717.78 2507.13,2718.26 2504.58,2718.69 2502.02,2719.05 2499.43,2719.35 2496.83,2719.58 2494.21,2719.75 2491.57,2719.85 2488.91,2719.88 1353.03,1584 1355.69,1583.97 1358.32,1583.87 1360.95,1583.7 1363.55,1583.46 1366.13,1583.17 1368.7,1582.81 1371.25,1582.38 1373.77,1581.9 1376.28,1581.35 1378.76,1580.74 1381.21,1580.07 1383.65,1579.34 1386.05,1578.56 1388.44,1577.71 1390.79,1576.82 1393.12,1575.86 1395.42,1574.85 1397.69,1573.79 1399.93,1572.67 1402.13,1571.5 1404.31,1570.28 1406.46,1569.01 1408.57,1567.69 1410.64,1566.32 1412.69,1564.91 1414.69,1563.44 1416.66,1561.93 1418.59,1560.37 1420.49,1558.77 1422.34,1557.12 1424.15,1555.43 "/>
     <polygon id="_338434776" class="fil1" points="1353.03,1584 2488.91,2719.88 1830.85,2719.88 694.969,1584 "/>
     <polygon id="_338435424" class="fil1" points="694.969,1584 1830.85,2719.88 1828.2,2719.85 1825.56,2719.75 1822.93,2719.58 1820.33,2719.35 1817.75,2719.05 1815.18,2718.69 1812.63,2718.26 1810.11,2717.78 1807.6,2717.23 1805.12,2716.62 1802.67,2715.95 1800.23,2715.23 1797.83,2714.44 1795.44,2713.6 1793.09,2712.7 1790.76,2711.74 1788.46,2710.73 1786.19,2709.67 1783.95,2708.56 1781.74,2707.39 1779.57,2706.17 1777.42,2704.9 1775.31,2703.57 1773.24,2702.21 1771.19,2700.79 1769.19,2699.32 1767.22,2697.81 1765.29,2696.25 629.406,1560.37 631.337,1561.93 633.306,1563.44 635.312,1564.91 637.354,1566.32 639.43,1567.69 641.542,1569.01 643.686,1570.28 645.863,1571.5 648.071,1572.67 650.312,1573.79 652.581,1574.85 654.88,1575.86 657.207,1576.82 659.562,1577.72 661.945,1578.56 664.353,1579.34 666.786,1580.07 669.243,1580.74 671.723,1581.35 674.227,1581.9 676.752,1582.38 679.299,1582.81 681.864,1583.17 684.451,1583.46 687.054,1583.7 689.676,1583.87 692.314,1583.97 "/>
    </g>
    <path id="_341212936" class="fil1" d="M694.969 464l658.061 0c28.402,0 54.2056,11.6032 72.8977,30.2953 18.6921,18.6933 30.2965,44.4992 30.2965,72.8989l0 913.612c0,28.3984 -11.6055,54.2032 -30.2977,72.8965 -18.6933,18.6933 -44.4981,30.2977 -72.8965,30.2977l-658.061 0c-28.3996,0 -54.2056,-11.6032 -72.8977,-30.2965 -18.6921,-18.6921 -30.2965,-44.4969 -30.2965,-72.8977l0 -913.612c0,-28.402 11.6032,-54.2079 30.2953,-72.9001 18.6921,-18.691 44.4969,-30.2941 72.8989,-30.2941z"/>
   </g>
  </g>
  <path class="fil2" d="M1024 0c565.539,0 1024,458.461 1024,1024 0,565.539 -458.461,1024 -1024,1024 -565.539,0 -1024,-458.461 -1024,-1024 0,-565.539 458.461,-1024 1024,-1024z"/>
  <path class="fil3" d="M694.969 464l658.061 0c28.402,0 54.2056,11.6032 72.8977,30.2953 18.6921,18.6933 30.2965,44.4992 30.2965,72.8989l0 913.612c0,28.3984 -11.6055,54.2032 -30.2977,72.8965 -18.6933,18.6933 -44.4981,30.2977 -72.8965,30.2977l-658.061 0c-28.3996,0 -54.2056,-11.6032 -72.8977,-30.2965 -18.6921,-18.6921 -30.2965,-44.4969 -30.2965,-72.8977l0 -913.612c0,-28.402 11.6032,-54.2079 30.2953,-72.9001 18.6921,-18.691 44.4969,-30.2941 72.8989,-30.2941z"/>
  <path class="fil4" d="M711.788 529.725l621.252 0c28.0725,0 51.0414,21.0555 51.0414,46.7882l0 209.879 -723.334 0 0 -209.879c0,-25.7339 22.9677,-46.7882 51.0402,-46.7882z"/>
  <path class="fil5" d="M884.564 885.667l87.9887 0c9.85631,0 18.8067,4.01929 25.2815,10.4941 6.47481,6.47481 10.4941,15.4228 10.4941,25.2815l0 87.991c0,9.85513 -4.01929,18.8055 -10.4941,25.2815 -6.47481,6.47481 -15.4252,10.4941 -25.2815,10.4941l-87.9887 0c-9.85985,0 -18.8079,-4.01929 -25.2827,-10.4941 -6.47481,-6.47599 -10.4953,-15.4264 -10.4953,-25.2815l0 -87.991c0,-9.85867 4.02048,-18.8067 10.4953,-25.2815 6.47481,-6.47481 15.4228,-10.4941 25.2827,-10.4941z"/>
  <path class="fil6" d="M1075.45 885.667l87.9887 0c9.85749,0 18.8079,4.01929 25.2827,10.4941 6.47481,6.47481 10.4953,15.4228 10.4953,25.2815l0 87.991c0,9.85513 -4.02048,18.8055 -10.4953,25.2815 -6.47481,6.47481 -15.4252,10.4941 -25.2827,10.4941l-87.9887 0c-9.85985,0 -18.8067,-4.01929 -25.2815,-10.4941 -6.47481,-6.47599 -10.4941,-15.4264 -10.4941,-25.2815l0 -87.991c0,-9.85867 4.01929,-18.8067 10.4941,-25.2815 6.47481,-6.47481 15.4217,-10.4941 25.2815,-10.4941z"/>
  <path class="fil7" d="M1266.33 885.667l87.991 0c9.85631,0 18.8055,4.01929 25.2815,10.4941 6.47481,6.47481 10.4941,15.4228 10.4941,25.2815l0 87.991c0,9.85513 -4.01929,18.8055 -10.4941,25.2815 -6.47599,6.47481 -15.4252,10.4941 -25.2815,10.4941l-87.991 0c-9.85867,0 -18.8067,-4.01929 -25.2815,-10.4941 -6.47481,-6.47599 -10.4941,-15.4264 -10.4941,-25.2815l0 -87.991c0,-9.85867 4.01929,-18.8067 10.4941,-25.2815 6.47481,-6.47481 15.4228,-10.4941 25.2815,-10.4941z"/>
  <path class="fil5" d="M884.564 1101.79l87.9887 0c9.85631,0 18.8067,4.01929 25.2815,10.4953 6.47481,6.47481 10.4941,15.4228 10.4941,25.2803l0 87.991c0,9.85631 -4.01929,18.8055 -10.4941,25.2815 -6.47481,6.47599 -15.4252,10.4953 -25.2815,10.4953l-87.9887 0c-9.85985,0 -18.8079,-4.01929 -25.2827,-10.4953 -6.47481,-6.47599 -10.4953,-15.4252 -10.4953,-25.2815l0 -87.991c0,-9.85749 4.02048,-18.8055 10.4953,-25.2803 6.47481,-6.47599 15.4228,-10.4953 25.2827,-10.4953z"/>
  <path class="fil5" d="M1075.45 1101.79l87.9887 0c9.85749,0 18.8079,4.01929 25.2827,10.4953 6.47481,6.47481 10.4953,15.4228 10.4953,25.2803l0 87.991c0,9.85631 -4.02048,18.8055 -10.4953,25.2815 -6.47481,6.47599 -15.4252,10.4953 -25.2827,10.4953l-87.9887 0c-9.85985,0 -18.8067,-4.01929 -25.2815,-10.4953 -6.47481,-6.47599 -10.4941,-15.4252 -10.4941,-25.2815l0 -87.991c0,-9.85749 4.01929,-18.8055 10.4941,-25.2803 6.47481,-6.47599 15.4217,-10.4953 25.2815,-10.4953z"/>
  <path class="fil5" d="M1266.33 1101.79l87.991 0c9.85631,0 18.8055,4.01929 25.2815,10.4953 6.47481,6.47481 10.4941,15.4228 10.4941,25.2803l0 87.991c0,9.85631 -4.01929,18.8055 -10.4941,25.2815 -6.47599,6.47599 -15.4252,10.4953 -25.2815,10.4953l-87.991 0c-9.85867,0 -18.8067,-4.01929 -25.2815,-10.4953 -6.47481,-6.47599 -10.4941,-15.4252 -10.4941,-25.2815l0 -87.991c0,-9.85749 4.01929,-18.8055 10.4941,-25.2803 6.47481,-6.47599 15.4228,-10.4953 25.2815,-10.4953z"/>
  <path class="fil5" d="M693.677 1101.79l87.991 0c9.85513,0 18.8067,4.01929 25.2815,10.4953 6.47481,6.47481 10.4941,15.4228 10.4941,25.2803l0 87.991c0,9.85631 -4.01929,18.8055 -10.4941,25.2815 -6.47481,6.47599 -15.4264,10.4953 -25.2815,10.4953l-87.991 0c-9.85867,0 -18.8055,-4.01929 -25.2815,-10.4953 -6.47481,-6.47599 -10.4941,-15.4252 -10.4941,-25.2815l0 -87.991c0,-9.85749 4.01929,-18.8055 10.4941,-25.2803 6.47599,-6.47599 15.4228,-10.4953 25.2815,-10.4953z"/>
  <path class="fil5" d="M884.564 1317.91l87.9887 0c9.85631,0 18.8067,4.01929 25.2815,10.4941 6.47481,6.47481 10.4941,15.4228 10.4941,25.2815l0 87.991c0,9.85513 -4.01929,18.8055 -10.4941,25.2803 -6.47481,6.47599 -15.4252,10.4953 -25.2815,10.4953l-87.9887 0c-9.85985,0 -18.8079,-4.01929 -25.2827,-10.4953 -6.47481,-6.47481 -10.4953,-15.4252 -10.4953,-25.2803l0 -87.991c0,-9.85867 4.02048,-18.8067 10.4953,-25.2815 6.47481,-6.47481 15.4228,-10.4941 25.2827,-10.4941z"/>
  <path class="fil5" d="M1075.45 1317.91l87.9887 0c9.85749,0 18.8079,4.01929 25.2827,10.4941 6.47481,6.47481 10.4953,15.4228 10.4953,25.2815l0 87.991c0,9.85513 -4.02048,18.8055 -10.4953,25.2803 -6.47481,6.47599 -15.4252,10.4953 -25.2827,10.4953l-87.9887 0c-9.85985,0 -18.8067,-4.01929 -25.2815,-10.4953 -6.47481,-6.47481 -10.4941,-15.4252 -10.4941,-25.2803l0 -87.991c0,-9.85867 4.01929,-18.8067 10.4941,-25.2815 6.47481,-6.47481 15.4217,-10.4941 25.2815,-10.4941z"/>
  <path class="fil5" d="M1266.33 1317.91l87.991 0c9.85631,0 18.8055,4.01929 25.2815,10.4941 6.47481,6.47481 10.4941,15.4228 10.4941,25.2815l0 87.991c0,9.85513 -4.01929,18.8055 -10.4941,25.2803 -6.47599,6.47599 -15.4252,10.4953 -25.2815,10.4953l-87.991 0c-9.85867,0 -18.8067,-4.01929 -25.2815,-10.4953 -6.47481,-6.47481 -10.4941,-15.4252 -10.4941,-25.2803l0 -87.991c0,-9.85867 4.01929,-18.8067 10.4941,-25.2815 6.47481,-6.47481 15.4228,-10.4941 25.2815,-10.4941z"/>
  <path class="fil5" d="M693.677 1317.91l87.991 0c9.85513,0 18.8067,4.01929 25.2815,10.4941 6.47481,6.47481 10.4941,15.4228 10.4941,25.2815l0 87.991c0,9.85513 -4.01929,18.8055 -10.4941,25.2803 -6.47481,6.47599 -15.4264,10.4953 -25.2815,10.4953l-87.991 0c-9.85867,0 -18.8055,-4.01929 -25.2815,-10.4953 -6.47481,-6.47481 -10.4941,-15.4252 -10.4941,-25.2803l0 -87.991c0,-9.85867 4.01929,-18.8067 10.4941,-25.2815 6.47599,-6.47481 15.4228,-10.4941 25.2815,-10.4941z"/>
  <path class="fil5" d="M693.677 885.667l87.991 0c9.85513,0 18.8067,4.01929 25.2815,10.4941 6.47481,6.47481 10.4941,15.4228 10.4941,25.2815l0 87.991c0,9.85513 -4.01929,18.8055 -10.4941,25.2815 -6.47481,6.47481 -15.4264,10.4941 -25.2815,10.4941l-87.991 0c-9.85867,0 -18.8055,-4.01929 -25.2815,-10.4941 -6.47481,-6.47599 -10.4941,-15.4264 -10.4941,-25.2815l0 -87.991c0,-9.85867 4.01929,-18.8067 10.4941,-25.2815 6.47599,-6.47481 15.4228,-10.4941 25.2815,-10.4941z"/>
 </g>
</svg>
